<svg width="110" height="33" viewBox="0 0 110 33" fill="none" xmlns="http://www.w3.org/2000/svg">
<path d="M0 3.5C0 2.39543 0.895431 1.5 2 1.5H25.1716C26.9534 1.5 27.8457 3.65428 26.5858 4.91421L15 16.5L3.41422 28.0858C2.15429 29.3457 0 28.4534 0 26.6716V3.5Z" fill="url(#paint0_linear_501_40)"/>
<path d="M29 27.5C29 28.6046 28.1046 29.5 27 29.5L17.8284 29.5C16.0466 29.5 15.1543 27.3457 16.4142 26.0858L21 21.5L25.5858 16.9142C26.8457 15.6543 29 16.5466 29 18.3284L29 27.5Z" fill="url(#paint1_linear_501_40)"/>
<path d="M42.576 24.216C41.968 24.216 41.504 24.048 41.184 23.712C40.864 23.376 40.704 22.904 40.704 22.296V8.76C40.704 8.152 40.864 7.688 41.184 7.368C41.504 7.032 41.968 6.864 42.576 6.864C43.168 6.864 43.624 7.032 43.944 7.368C44.264 7.688 44.424 8.152 44.424 8.76V14.448H44.472L50.856 7.776C51.128 7.488 51.408 7.272 51.696 7.128C52 6.968 52.344 6.888 52.728 6.888C53.288 6.888 53.688 7.032 53.928 7.32C54.184 7.608 54.296 7.944 54.264 8.328C54.232 8.712 54.056 9.072 53.736 9.408L47.328 15.96L47.352 14.352L54.072 21.528C54.44 21.928 54.624 22.336 54.624 22.752C54.64 23.168 54.504 23.52 54.216 23.808C53.944 24.08 53.536 24.216 52.992 24.216C52.528 24.216 52.152 24.12 51.864 23.928C51.592 23.736 51.288 23.456 50.952 23.088L44.472 16.272H44.424V22.296C44.424 22.904 44.264 23.376 43.944 23.712C43.64 24.048 43.184 24.216 42.576 24.216ZM63.1603 24.264C61.7363 24.264 60.6723 23.872 59.9683 23.088C59.2643 22.288 58.9123 21.104 58.9123 19.536V8.712C58.9123 8.104 59.0643 7.648 59.3683 7.344C59.6883 7.024 60.1443 6.864 60.7363 6.864C61.3123 6.864 61.7523 7.024 62.0563 7.344C62.3763 7.648 62.5363 8.104 62.5363 8.712V19.392C62.5363 20.048 62.6723 20.536 62.9443 20.856C63.2323 21.16 63.6083 21.312 64.0723 21.312C64.2003 21.312 64.3203 21.304 64.4323 21.288C64.5443 21.272 64.6643 21.264 64.7923 21.264C65.0483 21.232 65.2243 21.312 65.3203 21.504C65.4323 21.68 65.4883 22.04 65.4883 22.584C65.4883 23.064 65.3923 23.432 65.2003 23.688C65.0083 23.928 64.7123 24.088 64.3123 24.168C64.1523 24.184 63.9683 24.2 63.7603 24.216C63.5523 24.248 63.3523 24.264 63.1603 24.264ZM74.1073 24.264C72.7153 24.264 71.5153 24.016 70.5073 23.52C69.5153 23.008 68.7473 22.296 68.2033 21.384C67.6753 20.456 67.4113 19.368 67.4113 18.12C67.4113 16.904 67.6673 15.84 68.1793 14.928C68.6913 14 69.4033 13.28 70.3153 12.768C71.2433 12.24 72.2913 11.976 73.4593 11.976C74.3073 11.976 75.0753 12.12 75.7633 12.408C76.4513 12.68 77.0433 13.08 77.5393 13.608C78.0353 14.12 78.4113 14.752 78.6673 15.504C78.9233 16.24 79.0513 17.064 79.0513 17.976C79.0513 18.28 78.9553 18.512 78.7633 18.672C78.5713 18.816 78.2913 18.888 77.9233 18.888H70.3873V17.016H76.4353L76.0513 17.352C76.0513 16.696 75.9553 16.152 75.7633 15.72C75.5713 15.272 75.2913 14.936 74.9233 14.712C74.5713 14.488 74.1313 14.376 73.6033 14.376C73.0113 14.376 72.5073 14.512 72.0913 14.784C71.6753 15.056 71.3553 15.448 71.1313 15.96C70.9073 16.472 70.7953 17.088 70.7953 17.808V18C70.7953 19.216 71.0753 20.112 71.6353 20.688C72.2113 21.264 73.0593 21.552 74.1793 21.552C74.5633 21.552 75.0033 21.504 75.4993 21.408C75.9953 21.312 76.4593 21.16 76.8913 20.952C77.2593 20.776 77.5873 20.72 77.8753 20.784C78.1633 20.832 78.3873 20.96 78.5473 21.168C78.7073 21.376 78.7953 21.616 78.8113 21.888C78.8433 22.16 78.7873 22.432 78.6433 22.704C78.4993 22.96 78.2593 23.176 77.9233 23.352C77.3793 23.656 76.7633 23.88 76.0753 24.024C75.4033 24.184 74.7473 24.264 74.1073 24.264ZM86.3432 24.264C85.4792 24.264 84.7032 24.096 84.0152 23.76C83.3272 23.424 82.7912 22.968 82.4072 22.392C82.0232 21.816 81.8312 21.168 81.8312 20.448C81.8312 19.584 82.0552 18.904 82.5032 18.408C82.9512 17.896 83.6792 17.536 84.6872 17.328C85.6952 17.104 87.0312 16.992 88.6952 16.992H89.9672V18.864H88.7192C87.9032 18.864 87.2392 18.912 86.7272 19.008C86.2312 19.088 85.8712 19.232 85.6472 19.44C85.4392 19.648 85.3352 19.936 85.3352 20.304C85.3352 20.752 85.4872 21.12 85.7912 21.408C86.1112 21.696 86.5672 21.84 87.1592 21.84C87.6232 21.84 88.0312 21.736 88.3832 21.528C88.7512 21.304 89.0392 21.008 89.2472 20.64C89.4552 20.256 89.5592 19.824 89.5592 19.344V16.584C89.5592 15.88 89.3992 15.384 89.0792 15.096C88.7592 14.792 88.2152 14.64 87.4472 14.64C87.0152 14.64 86.5432 14.696 86.0312 14.808C85.5352 14.904 84.9832 15.072 84.3752 15.312C84.0232 15.472 83.7112 15.512 83.4392 15.432C83.1672 15.336 82.9592 15.176 82.8152 14.952C82.6712 14.712 82.5992 14.456 82.5992 14.184C82.5992 13.896 82.6792 13.624 82.8392 13.368C82.9992 13.096 83.2632 12.896 83.6312 12.768C84.3832 12.464 85.0872 12.256 85.7432 12.144C86.4152 12.032 87.0312 11.976 87.5912 11.976C88.8232 11.976 89.8312 12.16 90.6152 12.528C91.4152 12.88 92.0152 13.432 92.4152 14.184C92.8152 14.92 93.0152 15.872 93.0152 17.04V22.368C93.0152 22.96 92.8712 23.416 92.5832 23.736C92.2952 24.056 91.8792 24.216 91.3352 24.216C90.7912 24.216 90.3672 24.056 90.0632 23.736C89.7752 23.416 89.6312 22.96 89.6312 22.368V21.48L89.7992 21.624C89.7032 22.168 89.4952 22.64 89.1752 23.04C88.8712 23.424 88.4792 23.728 87.9992 23.952C87.5192 24.16 86.9672 24.264 86.3432 24.264ZM98.7426 24.216C98.1506 24.216 97.6946 24.056 97.3746 23.736C97.0706 23.416 96.9186 22.96 96.9186 22.368V13.848C96.9186 13.256 97.0706 12.808 97.3746 12.504C97.6946 12.184 98.1346 12.024 98.6946 12.024C99.2706 12.024 99.7106 12.184 100.015 12.504C100.319 12.808 100.471 13.256 100.471 13.848V15.216L100.207 14.424C100.575 13.64 101.119 13.04 101.839 12.624C102.575 12.192 103.407 11.976 104.335 11.976C105.279 11.976 106.055 12.16 106.663 12.528C107.271 12.88 107.727 13.424 108.031 14.16C108.335 14.88 108.487 15.8 108.487 16.92V22.368C108.487 22.96 108.327 23.416 108.007 23.736C107.703 24.056 107.255 24.216 106.663 24.216C106.087 24.216 105.639 24.056 105.319 23.736C105.015 23.416 104.863 22.96 104.863 22.368V17.088C104.863 16.272 104.711 15.688 104.407 15.336C104.119 14.968 103.671 14.784 103.063 14.784C102.295 14.784 101.679 15.024 101.215 15.504C100.767 15.984 100.543 16.624 100.543 17.424V22.368C100.543 23.6 99.9426 24.216 98.7426 24.216Z" fill="url(#paint2_linear_501_40)"/>
<defs>
<linearGradient id="paint0_linear_501_40" x1="15" y1="1.5" x2="15" y2="31.5" gradientUnits="userSpaceOnUse">
<stop stop-color="#579AFF"/>
<stop offset="1" stop-color="#4E92F9"/>
</linearGradient>
<linearGradient id="paint1_linear_501_40" x1="21" y1="29.5" x2="21" y2="13.5" gradientUnits="userSpaceOnUse">
<stop stop-color="#C048EC"/>
<stop offset="1" stop-color="#F9E9FF"/>
</linearGradient>
<linearGradient id="paint2_linear_501_40" x1="39" y1="0" x2="94.5262" y2="50.1371" gradientUnits="userSpaceOnUse">
<stop stop-color="#C381DB"/>
<stop offset="1" stop-color="#4E92F9"/>
</linearGradient>
</defs>
</svg>
